HIERARCHY
ROOT Pelvis
{
	OFFSET 0.000000 0.000000 0.000000
	CHANNELS 6 Xposition Yposition Zposition Zrotation Yrotation Xrotation 
	JOINT Left_hip
	{
		OFFSET 0.076090 -0.089427 -0.010735
		CHANNELS 3 Zrotation Yrotation Xrotation
		JOINT Left_knee
		{
			OFFSET 0.030200 -0.359518 -0.003501
			CHANNELS 3 Zrotation Yrotation Xrotation
			JOINT Left_ankle
			{
				OFFSET -0.011005 -0.371022 -0.045888
				CHANNELS 3 Zrotation Yrotation Xrotation
				JOINT Left_foot
				{
					OFFSET 0.023930 -0.052103 0.111084
					CHANNELS 3 Zrotation Yrotation Xrotation
					End Site
					{
						OFFSET 0.000000 0.000000 0.000000
					}
				}
			}
		}
	}
	JOINT Right_hip
	{
		OFFSET -0.073836 -0.088112 -0.007709
		CHANNELS 3 Zrotation Yrotation Xrotation
		JOINT Right_knee
		{
			OFFSET -0.035715 -0.367809 -0.006536
			CHANNELS 3 Zrotation Yrotation Xrotation
			JOINT Right_ankle
			{
				OFFSET 0.013718 -0.371958 -0.043815
				CHANNELS 3 Zrotation Yrotation Xrotation
				JOINT Right_foot
				{
					OFFSET -0.021936 -0.046387 0.114542
					CHANNELS 3 Zrotation Yrotation Xrotation
					End Site
					{
						OFFSET 0.000000 0.000000 0.000000
					}
				}
			}
		}
	}
	JOINT Spine1
	{
		OFFSET -0.001865 0.102064 -0.019455
		CHANNELS 3 Zrotation Yrotation Xrotation
		JOINT Spine2
		{
			OFFSET 0.003082 0.129260 -0.001938
			CHANNELS 3 Zrotation Yrotation Xrotation
			JOINT Spine3
			{
				OFFSET 0.001104 0.048093 0.026561
				CHANNELS 3 Zrotation Yrotation Xrotation
				JOINT Neck
				{
					OFFSET -0.002010 0.204222 -0.047183
					CHANNELS 3 Zrotation Yrotation Xrotation
					JOINT Head
					{
						OFFSET 0.005050 0.063649 0.048489
						CHANNELS 3 Zrotation Yrotation Xrotation
						End Site
						{
							OFFSET 0.000000 0.000000 0.000000
						}
					}
				}
				JOINT Left_collar
				{
					OFFSET 0.072979 0.114065 -0.031633
					CHANNELS 3 Zrotation Yrotation Xrotation
					JOINT Left_shoulder
					{
						OFFSET 0.083419 0.032092 -0.006530
						CHANNELS 3 Zrotation Yrotation Xrotation
						JOINT Left_elbow
						{
							OFFSET 0.239393 -0.012014 -0.025060
							CHANNELS 3 Zrotation Yrotation Xrotation
							JOINT Left_wrist
							{
								OFFSET 0.227297 0.008116 0.000384
								CHANNELS 3 Zrotation Yrotation Xrotation
								JOINT Left_palm
								{
									OFFSET 0.074607 -0.009248 -0.012277
									CHANNELS 3 Zrotation Yrotation Xrotation
									End Site
									{
										OFFSET 0.000000 0.000000 0.000000
									}
								}
							}
						}
					}
				}
				JOINT Right_collar
				{
					OFFSET -0.074980 0.111880 -0.037894
					CHANNELS 3 Zrotation Yrotation Xrotation
					JOINT Right_shoulder
					{
						OFFSET -0.087565 0.034353 -0.009323
						CHANNELS 3 Zrotation Yrotation Xrotation
						JOINT Right_elbow
						{
							OFFSET -0.236838 -0.013719 -0.019794
							CHANNELS 3 Zrotation Yrotation Xrotation
							JOINT Right_wrist
							{
								OFFSET -0.235053 0.006433 -0.003853
								CHANNELS 3 Zrotation Yrotation Xrotation
								JOINT Right_palm
								{
									OFFSET -0.075499 -0.006894 -0.009792
									CHANNELS 3 Zrotation Yrotation Xrotation
									End Site
									{
										OFFSET 0.000000 0.000000 0.000000
									}
								}
							}
						}
					}
				}
			}
		}
	}
}
MOTION
Frames: 15
Frame Time: 0.100000
0.000000 0.000000 0.000000 172.577885 32.526708 -15.196513 2.194874 1.619484 4.571019 -3.430832 -6.989371 -6.358844 -2.440245 8.855248 -4.040361 5.646193 6.742335 -4.934276 -0.169023 -0.428990 4.597578 2.443267 7.570129 -4.276683 7.978098 -11.668661 -8.044926 -12.348198 8.600831 1.751855 2.820784 0.220864 3.738436 1.618994 -1.819357 0.671981 1.047690 -2.291365 2.709224 1.169478 1.818471 -15.516596 -2.689583 -5.537974 2.492492 -31.357484 4.925265 2.448211 -54.899625 -3.464994 5.765511 3.514683 3.479745 3.403631 -7.143044 -0.069148 -0.421866 -9.034110 -5.097307 -11.819162 31.139585 -0.005704 2.939336 47.859286 0.278372 13.479254 -4.545563 0.303649 -5.208249 5.637381 -2.626714 1.004881 12.131693 6.847756 -6.908583 
0.001811 0.000837 -0.002292 172.745733 32.054562 -14.928788 2.148965 1.448625 4.093842 -3.490975 -6.462137 -6.224374 -1.470897 8.354742 -4.015527 4.430883 7.741145 -4.340950 -0.171014 -0.121721 3.986556 2.500040 7.211361 -4.004508 7.119668 -11.437580 -8.126449 -10.891623 9.080503 2.968594 2.715569 0.356558 3.554506 1.693636 -1.990781 0.579387 0.976274 -2.131885 1.593880 1.645649 2.019012 -14.261311 -2.830303 -5.839291 4.203311 -31.983869 1.006694 2.227877 -53.623436 -7.385323 6.947352 3.959072 -0.685945 3.448381 -6.863390 0.191380 1.302448 -9.308638 -5.247232 -11.388022 31.589115 3.170429 3.005749 47.195324 3.393195 14.387585 -5.144531 4.098006 -4.351379 5.505975 -2.284192 2.531209 12.200991 7.165997 -6.838406 
0.003586 0.001396 -0.004633 172.889704 31.675492 -14.652926 2.123501 1.087133 3.371245 -3.528904 -5.861739 -5.703951 -0.802199 7.743058 -4.254942 3.546124 8.912944 -3.730858 -0.141898 0.111560 3.504701 2.455521 6.753103 -4.040120 6.880159 -11.239000 -8.200311 -10.102742 9.872589 3.925685 2.482978 0.502241 3.366241 1.772704 -2.197138 0.334862 0.885337 -1.925305 0.295172 2.130471 2.310277 -13.051115 -3.047568 -6.284527 6.426768 -32.199284 -3.408796 2.005811 -51.728153 -12.101006 8.257158 5.801557 -8.777709 2.464033 -4.576966 -0.137833 2.368767 -9.672658 -5.416270 -10.397959 31.693917 6.799207 2.750256 46.031516 7.168604 15.160226 -6.755627 11.008321 -4.808205 3.854615 -1.275840 3.197797 12.312523 7.543945 -6.643352 
0.004489 0.001038 -0.006833 172.943877 31.660525 -14.711496 1.970388 0.505768 2.704545 -3.410709 -5.246241 -4.639848 -0.045791 7.238178 -4.540900 2.559443 9.926042 -3.228887 -0.261954 0.011878 3.657106 2.533784 6.143091 -4.533649 6.964110 -10.850279 -7.789807 -9.776212 10.611130 4.656828 2.353327 0.878216 3.209401 1.638196 -2.285303 0.148290 0.799939 -1.465127 -0.754926 2.010273 2.870780 -11.520264 -3.170596 -5.876030 8.447067 -31.447030 -7.688811 1.506487 -50.387165 -17.043718 8.832235 7.622879 -16.460283 0.356256 -3.315288 -0.680522 1.953100 -9.669794 -5.411592 -8.758954 30.843317 10.434670 2.643194 45.378910 10.896903 15.504149 -7.780731 16.787300 -5.586800 3.343656 -0.614638 2.997542 12.181480 7.745874 -6.233140 
0.003312 0.000064 -0.008830 172.434558 33.868381 -15.730277 1.168612 -0.406162 1.182585 -2.664540 -5.426296 -0.665780 1.273983 6.200528 -5.073695 0.461273 10.476113 -3.344514 -0.121190 -0.719177 4.355299 2.085834 4.889889 -3.792590 6.146031 -10.984120 -7.796084 -8.885929 10.604795 5.264603 2.342850 1.461921 3.411929 1.478927 -2.643685 -0.302615 0.913146 -1.268929 -1.114243 0.845694 3.992645 -10.135791 -3.985756 -4.747868 10.142067 -29.828326 -12.851344 0.696595 -50.727319 -21.556633 9.888447 6.571869 -13.511526 2.543742 -3.534834 0.205047 5.465389 -9.564764 -5.452094 -8.471628 30.038961 14.060403 2.774781 45.498123 13.914201 14.996601 -8.560966 13.450593 -5.713059 2.720684 -0.561512 4.662336 12.024645 8.021843 -6.254957 
0.004851 0.002455 -0.009662 170.728774 37.917815 -18.947644 0.192310 -1.817926 -0.343802 -1.564783 -7.546080 6.147295 3.556274 6.360084 -6.334974 -2.217540 9.992621 -4.093576 0.957545 -1.089192 1.800557 1.499508 2.717343 7.090266 2.752958 -11.483039 -11.957607 -5.196849 8.858316 6.482804 2.468906 1.508830 5.275555 1.577075 -2.440837 -0.949198 1.215881 -1.065171 -0.919255 -0.915647 5.084779 -8.639619 -5.439857 -3.230572 10.653880 -28.344559 -16.464034 0.590133 -52.719543 -23.481453 10.550980 4.715498 -5.086449 3.955587 -6.482387 3.831312 5.756695 -8.698994 -4.772307 -8.409965 29.651991 16.737963 3.639208 45.557399 15.450980 12.619606 -8.426154 2.912178 -8.036944 5.250009 -2.774220 3.691013 10.734211 7.453183 -5.737529 
0.010061 0.008434 -0.004635 170.593597 41.799457 -20.470235 -1.025555 -2.760203 -0.521187 -2.139356 -11.214381 8.969141 4.840198 7.444612 -7.424348 -2.327630 9.905712 -4.913746 0.735729 2.972391 -3.855209 1.252282 8.384716 21.135358 2.560459 -10.183765 -16.069588 -5.127901 9.138399 4.428393 1.539213 1.163400 7.040282 1.391424 -0.952880 -0.703214 0.421091 -0.661070 -0.154629 -0.810281 6.301281 -10.308545 -6.513253 -3.344548 10.894971 -29.137802 -14.683118 0.529805 -51.597353 -20.860022 10.258206 3.466484 -2.275027 3.054652 -6.421268 4.874714 5.047407 -9.408780 -4.452144 -9.141697 30.820901 16.163344 4.177753 44.911973 13.780717 14.131829 -6.584756 2.365099 -6.871021 6.812770 -3.522771 3.690401 10.728181 7.104870 -6.176527 
0.013816 0.002021 0.008146 170.258210 45.154893 -20.658113 -0.213248 -2.794863 1.427477 -2.510120 -13.598497 5.169825 2.360477 6.337810 -6.297258 0.698642 9.908405 -4.836476 -1.630101 4.290153 -3.228906 -0.313367 11.801466 15.391842 6.018578 -11.263480 -12.191127 -10.088876 10.625292 1.597674 1.618379 0.760561 5.563127 1.093358 -0.717648 0.384528 -0.082442 -0.694836 0.656141 -1.410743 7.150670 -10.066996 -7.321311 -2.510990 11.412191 -28.584260 -10.592214 1.249803 -50.900950 -17.560329 9.164492 3.839617 -0.254026 1.660219 -5.429851 4.122813 2.806053 -9.669404 -4.684475 -9.680776 30.465924 14.206070 3.821827 45.558079 13.783827 15.773013 -5.829659 4.749130 -6.212469 5.433754 -3.081604 3.496685 11.464560 7.089847 -6.798062 
0.023128 -0.003817 0.023937 170.531331 46.317828 -20.300170 1.554767 -1.689791 4.381106 -2.263338 -14.612306 -1.082975 0.176877 5.111481 -4.498990 1.704825 9.726107 -3.905646 -2.863827 2.145688 -0.181655 1.241947 10.452319 9.411150 6.063727 -9.061216 -11.457531 -7.842072 10.320843 3.580228 2.012014 1.446845 4.627981 0.802347 -0.063379 0.947959 -0.215422 0.173039 -0.287347 -1.021920 7.672257 -6.615662 -7.856648 -2.552577 13.070899 -28.522838 -9.041008 0.686861 -47.785351 -16.835941 7.956750 5.314895 -5.897282 -0.630326 -4.958337 2.674306 0.831886 -9.925983 -4.773021 -9.010495 30.422638 14.204692 3.456320 42.282455 16.319718 13.863166 -6.414846 8.435995 -8.064302 4.334110 -2.432201 3.178277 12.139532 7.341428 -6.496045 
0.035462 -0.007953 0.034684 170.346340 47.997713 -20.083230 2.694508 -1.956448 4.583488 -1.725041 -15.011026 -3.233479 -2.427158 4.238191 -3.043725 3.593331 10.057886 -4.435784 -2.986830 1.162187 0.592538 1.978374 9.195906 7.102052 6.915963 -8.221504 -11.118643 -7.731989 11.026991 4.667385 2.543754 1.272495 4.237561 0.470430 0.022915 0.060079 -0.774447 0.494716 -1.221341 -0.253573 7.218371 -3.097940 -8.291283 -3.184801 17.047992 -28.107167 -8.551168 -0.683767 -45.761825 -19.685367 7.694110 9.981211 -20.037586 -5.855261 -1.819880 0.689021 -2.153954 -9.587805 -4.590551 -6.504253 28.951090 14.522415 1.336272 39.475167 19.510044 12.410725 -8.334120 17.426618 -12.171942 2.831289 -1.185380 1.464535 11.613798 7.161406 -5.195438 
0.046388 -0.009596 0.040469 169.559010 50.534061 -22.945921 3.350703 -2.981393 6.519202 -1.937322 -15.068634 -3.781324 -7.303048 4.406310 -2.181431 7.408004 7.795969 -5.735790 -2.547200 0.984971 4.317822 1.873830 8.758566 4.845217 8.260694 -9.134942 -11.832244 -9.878785 11.759634 4.952700 3.182215 0.975724 3.817856 0.284913 -0.515493 2.383066 -0.358069 0.297602 0.248390 -2.267682 4.261075 -4.987934 -8.963333 -3.803031 21.620014 -26.387336 -13.715737 -0.349024 -44.442379 -26.080944 10.523947 19.803833 -31.505006 -23.134810 6.322430 -5.468171 -16.159140 -6.896838 -1.366492 0.144731 26.075594 18.944459 1.291179 31.148047 22.736250 10.568415 -10.935163 27.305097 -20.872569 -2.321914 3.235923 -12.828519 7.393876 3.816079 -0.820487 
0.055322 -0.010338 0.043216 168.476039 52.961848 -23.806965 3.468325 -3.854035 5.358209 -1.515800 -15.564648 -3.101315 -8.244432 3.416179 -1.433788 7.877548 8.490878 -6.382553 -2.222768 0.452520 5.756072 1.942164 7.891707 2.039732 8.488064 -10.706411 -11.529586 -10.766263 13.070361 5.961673 3.386888 1.017870 3.473056 0.304493 -1.313833 2.328464 -0.195439 0.012728 0.130261 -2.274290 2.734153 -5.129704 -8.569334 -4.932381 22.785475 -24.199493 -17.026948 -1.225573 -42.804970 -30.681252 10.834495 27.660821 -39.965609 -29.546658 7.186152 -6.331643 -19.461144 -6.550908 -0.939466 2.199049 22.824422 20.822771 -0.580571 26.420849 23.967610 7.952920 -16.908914 34.134918 -27.158573 -2.499103 3.729880 -16.123212 6.974694 3.533209 0.208483 
0.062616 -0.010915 0.045412 167.997594 53.551686 -24.002009 3.838787 -4.353576 4.295709 -1.307833 -15.804063 -2.381098 -8.976252 3.621043 -1.215900 8.532178 8.018912 -6.631766 -2.340315 -0.568780 6.096865 2.725922 7.720527 0.492567 9.661049 -10.704375 -11.027072 -12.515715 14.196977 6.274981 3.859786 1.268202 3.340498 0.065071 -1.419385 2.053872 -0.000053 0.422681 0.096883 -2.403636 0.507571 -6.202838 -7.393244 -6.371483 22.158307 -21.840504 -19.421041 -2.559931 -41.568720 -32.901559 11.189135 34.432739 -45.006863 -35.552721 12.085161 -6.015820 -21.035664 -7.018449 -0.880830 3.315980 19.490647 22.967178 -1.889354 20.809572 24.562501 4.279237 -17.978416 36.097291 -29.404417 -5.193362 3.908064 -15.504146 7.057005 3.501158 0.163345 
0.067093 -0.011701 0.049538 167.967642 53.497487 -23.986887 4.122100 -4.844108 3.932211 -1.183118 -15.790207 -1.911046 -9.423099 4.350781 -1.276660 9.041075 7.578029 -6.700867 -2.295857 -0.898603 6.969439 3.120100 8.131408 -1.479338 10.356977 -10.921715 -10.426570 -13.576898 14.853240 6.780329 4.296592 1.474456 3.074148 -0.514652 -0.731684 2.062963 -0.076936 1.144278 -0.037948 -2.104507 -2.981772 -7.654890 -6.359226 -8.838618 21.025185 -20.653833 -19.496610 -3.295904 -40.469585 -32.776733 12.079894 42.387975 -51.123667 -41.812646 12.152956 -6.547870 -23.585701 -6.613991 -0.506269 4.244700 17.198494 24.630862 -2.307214 15.328629 24.245110 0.738601 -15.094931 34.136373 -30.128003 -4.796921 3.601279 -15.525526 6.575657 3.043155 0.048732 
0.071249 -0.011955 0.054000 167.632246 53.604885 -23.645629 4.752204 -5.249175 2.802490 -1.354096 -15.475047 -1.280861 -9.881593 4.724472 -1.469218 9.623873 6.708186 -6.561168 -2.248273 -1.421765 7.029927 3.727179 8.083854 -3.034515 10.807155 -10.487637 -9.850393 -14.253487 14.864636 7.509079 4.345519 1.675864 2.614946 -0.944140 -0.137138 1.660676 -0.138007 1.628717 -0.302990 -1.506543 -6.713300 -9.666125 -5.364650 -11.822868 19.914122 -20.072376 -18.503645 -3.737653 -40.846169 -31.923928 13.578805 51.550473 -55.796071 -49.727486 11.509884 -6.857901 -27.740781 -6.296725 -0.133064 5.454871 15.734341 25.389625 -2.760391 11.518168 24.076568 -2.153486 -12.907406 31.702397 -31.191172 -3.334230 3.224782 -16.343713 5.966625 2.617709 0.351734 
